<svg width="439" height="429" viewBox="0 0 439 429" fill="none" xmlns="http://www.w3.org/2000/svg">
<g clip-path="url(#clip0_2001_56)">
<path d="M278.695 96.4807H160.404C157.708 96.484 155.124 97.5575 153.218 99.4657C151.312 101.374 150.239 103.961 150.236 106.66V369.859L148.88 370.273L119.862 379.17C118.486 379.589 117.001 379.446 115.731 378.77C114.462 378.095 113.512 376.942 113.09 375.566L26.7725 93.298C26.3524 91.9212 26.4956 90.4337 27.1705 89.1625C27.8454 87.8913 28.9969 86.9404 30.3719 86.5187L75.0898 72.8108L204.729 33.0849L249.446 19.3769C250.127 19.1673 250.842 19.094 251.551 19.1613C252.259 19.2287 252.948 19.4353 253.577 19.7693C254.206 20.1034 254.763 20.5584 255.216 21.1082C255.669 21.658 256.01 22.2919 256.218 22.9736L278.282 95.1235L278.695 96.4807Z" fill="#F2F2F2"/>
<path d="M304.508 95.1235L277.916 8.16635C277.473 6.71748 276.75 5.37008 275.787 4.20116C274.825 3.03224 273.641 2.0647 272.305 1.35382C270.968 0.642951 269.505 0.202671 267.999 0.0581622C266.492 -0.0863471 264.972 0.0677454 263.525 0.511619L200.654 19.7774L71.0227 59.5101L8.15215 78.7826C5.23152 79.6804 2.78603 81.7017 1.35247 84.4028C-0.0810869 87.1038 -0.385595 90.2639 0.5058 93.1895L91.3919 390.374C92.1161 392.735 93.5772 394.802 95.5609 396.271C97.5446 397.741 99.9464 398.535 102.414 398.537C103.556 398.538 104.692 398.366 105.783 398.028L148.88 384.823L150.236 384.402V382.983L148.88 383.397L105.383 396.732C102.805 397.519 100.02 397.25 97.6403 395.984C95.2602 394.718 93.4788 392.559 92.6867 389.98L1.80755 92.7891C1.41513 91.5113 1.27837 90.1684 1.40508 88.8375C1.53178 87.5067 1.91947 86.2139 2.54595 85.0332C3.17243 83.8526 4.02541 82.8072 5.05601 81.9571C6.08661 81.1069 7.2746 80.4686 8.55196 80.0787L71.4225 60.8062L201.055 21.0803L263.925 1.80778C264.894 1.51177 265.901 1.36084 266.914 1.35989C269.088 1.36478 271.204 2.06643 272.95 3.36208C274.697 4.65773 275.984 6.47929 276.621 8.55995L303.091 95.1236L303.512 96.4808H304.922L304.508 95.1235Z" fill="#3F3D56"/>
<path d="M83.1592 86.7406C81.8528 86.7396 80.5809 86.3196 79.5304 85.542C78.4799 84.7644 77.7059 83.6703 77.322 82.4201L68.5911 53.8697C68.3565 53.1028 68.2751 52.2971 68.3515 51.4987C68.4279 50.7003 68.6607 49.9248 69.0366 49.2164C69.4125 48.5081 69.9241 47.8809 70.5421 47.3705C71.1601 46.8601 71.8726 46.4766 72.6387 46.2419L191.899 9.68941C193.446 9.21677 195.117 9.37797 196.546 10.1376C197.974 10.8972 199.043 12.1932 199.518 13.7412L208.249 42.2919C208.721 43.8407 208.56 45.5137 207.801 46.9437C207.042 48.3738 205.748 49.4441 204.202 49.92L84.9416 86.4725C84.364 86.6499 83.7633 86.7403 83.1592 86.7406Z" fill="#616161"/>
<path d="M128.895 30.5067C136.383 30.5067 142.452 24.4302 142.452 16.9345C142.452 9.43876 136.383 3.36227 128.895 3.36227C121.408 3.36227 115.339 9.43876 115.339 16.9345C115.339 24.4302 121.408 30.5067 128.895 30.5067Z" fill="#616161"/>
<path d="M128.895 25.5288C133.637 25.5288 137.48 21.681 137.48 16.9345C137.48 12.188 133.637 8.34015 128.895 8.34015C124.154 8.34015 120.311 12.188 120.311 16.9345C120.311 21.681 124.154 25.5288 128.895 25.5288Z" fill="white"/>
<path d="M408.497 395.069H179.384C177.856 395.068 176.392 394.459 175.312 393.378C174.231 392.297 173.624 390.831 173.622 389.301V114.464C173.624 112.935 174.231 111.468 175.311 110.387C176.392 109.306 177.856 108.697 179.384 108.696H408.497C410.024 108.697 411.489 109.306 412.569 110.387C413.649 111.468 414.257 112.935 414.259 114.464V389.301C414.257 390.831 413.649 392.297 412.569 393.378C411.489 394.459 410.024 395.068 408.497 395.069Z" fill="#E6E6E6"/>
<path d="M303.091 95.1235H160.404C157.349 95.1278 154.42 96.3446 152.26 98.5072C150.1 100.67 148.885 103.602 148.88 106.66V383.397L150.236 382.983V106.66C150.239 103.961 151.312 101.374 153.218 99.4657C155.124 97.5575 157.708 96.484 160.404 96.4807H303.512L303.091 95.1235ZM427.477 95.1235H160.404C157.349 95.1278 154.42 96.3446 152.26 98.5072C150.1 100.67 148.885 103.602 148.88 106.66V417.464C148.885 420.522 150.1 423.454 152.26 425.616C154.42 427.779 157.349 428.996 160.404 429H427.477C430.531 428.996 433.46 427.779 435.62 425.616C437.78 423.454 438.996 420.522 439 417.464V106.66C438.996 103.602 437.78 100.67 435.62 98.5072C433.46 96.3446 430.531 95.1278 427.477 95.1235ZM437.644 417.464C437.641 420.162 436.569 422.749 434.663 424.658C432.757 426.566 430.172 427.639 427.477 427.643H160.404C157.708 427.639 155.124 426.566 153.218 424.658C151.312 422.749 150.239 420.162 150.236 417.464V106.66C150.239 103.961 151.312 101.374 153.218 99.4657C155.124 97.5575 157.708 96.484 160.404 96.4807H427.477C430.172 96.484 432.757 97.5575 434.663 99.4657C436.569 101.374 437.641 103.961 437.644 106.66V417.464Z" fill="#3F3D56"/>
<path d="M356.303 124.982H231.578C229.961 124.981 228.41 124.336 227.266 123.191C226.123 122.047 225.479 120.494 225.478 118.875V89.016C225.479 87.3967 226.123 85.8443 227.266 84.6993C228.41 83.5544 229.961 82.9103 231.578 82.9085H356.303C357.92 82.9103 359.471 83.5544 360.614 84.6993C361.758 85.8443 362.401 87.3967 362.403 89.016V118.875C362.401 120.494 361.758 122.047 360.614 123.191C359.471 124.336 357.92 124.981 356.303 124.982Z" fill="#616161"/>
<path d="M293.94 84.9443C301.427 84.9443 307.497 78.8678 307.497 71.3721C307.497 63.8764 301.427 57.7999 293.94 57.7999C286.453 57.7999 280.383 63.8764 280.383 71.3721C280.383 78.8678 286.453 84.9443 293.94 84.9443Z" fill="#616161"/>
<path d="M293.94 79.6388C298.501 79.6388 302.198 75.9377 302.198 71.3721C302.198 66.8065 298.501 63.1053 293.94 63.1053C289.38 63.1053 285.683 66.8065 285.683 71.3721C285.683 75.9377 289.38 79.6388 293.94 79.6388Z" fill="white"/>
</g>
<defs>
<clipPath id="clip0_2001_56">
<rect width="439" height="429" fill="white"/>
</clipPath>
</defs>
</svg>
